<svg id="visual" viewBox="0 0 960 300" width="960" height="300" xmlns="http://www.w3.org/2000/svg" xmlns:xlink="http://www.w3.org/1999/xlink" version="1.1"><rect x="0" y="0" width="960" height="300" fill="#242424"></rect><path d="M0 153L26.7 140.3C53.3 127.7 106.7 102.3 160 86.5C213.3 70.7 266.7 64.3 320 64.8C373.3 65.3 426.7 72.7 480 84.3C533.3 96 586.7 112 640 98.7C693.3 85.3 746.7 42.7 800 41.5C853.3 40.3 906.7 80.7 933.3 100.8L960 121L960 0L933.3 0C906.7 0 853.3 0 800 0C746.7 0 693.3 0 640 0C586.7 0 533.3 0 480 0C426.7 0 373.3 0 320 0C266.7 0 213.3 0 160 0C106.7 0 53.3 0 26.7 0L0 0Z" fill="#dd3f31" stroke-linecap="round" stroke-linejoin="miter"></path></svg>