<svg id="visual" viewBox="0 0 960 300" width="960" height="300" xmlns="http://www.w3.org/2000/svg" xmlns:xlink="http://www.w3.org/1999/xlink" version="1.1"><rect x="0" y="0" width="960" height="300" fill="#242424"></rect><path d="M0 63L32 55.8C64 48.7 128 34.3 192 38.7C256 43 320 66 384 70.2C448 74.3 512 59.7 576 67.3C640 75 704 105 768 110.3C832 115.7 896 96.3 928 86.7L960 77L960 301L928 301C896 301 832 301 768 301C704 301 640 301 576 301C512 301 448 301 384 301C320 301 256 301 192 301C128 301 64 301 32 301L0 301Z" fill="#ff6f61"></path><path d="M0 94L32 97C64 100 128 106 192 111.3C256 116.7 320 121.3 384 126.2C448 131 512 136 576 146.5C640 157 704 173 768 167.7C832 162.3 896 135.7 928 122.3L960 109L960 301L928 301C896 301 832 301 768 301C704 301 640 301 576 301C512 301 448 301 384 301C320 301 256 301 192 301C128 301 64 301 32 301L0 301Z" fill="#ee5849"></path><path d="M0 243L32 234.2C64 225.3 128 207.7 192 194.8C256 182 320 174 384 190.2C448 206.3 512 246.7 576 255.5C640 264.3 704 241.7 768 242C832 242.3 896 265.7 928 277.3L960 289L960 301L928 301C896 301 832 301 768 301C704 301 640 301 576 301C512 301 448 301 384 301C320 301 256 301 192 301C128 301 64 301 32 301L0 301Z" fill="#dd3f31"></path></svg>